<svg xmlns="http://www.w3.org/2000/svg" viewBox="0 0 1926.16 998.15"><defs><style>.cls-1{fill:#96d9c9;}.cls-2{fill:#3c8f7c;}.cls-3{fill:#50bfa5;}.cls-4{fill:#184655;}.cls-5{fill:#86b1f2;}.cls-6{fill:#fae0b2;}.cls-7{fill:#355389;}.cls-8{fill:#466eb6;}.cls-9{fill:#ff4c16;}.cls-10{fill:#f47458;}.cls-11{fill:#b75742;}.cls-12{fill:#13375b;}.cls-13{fill:#f7cc7f;}.cls-14{fill:#9bc1f9;}.cls-15{fill:#f48c7f;}.cls-16{fill:#ab30c4;}</style></defs><g id="Layer_2" data-name="Layer 2"><g id="Layer_1-2" data-name="Layer 1"><path class="cls-1" d="M1150,119.69l23.4-22.64c-7.32-40.94-45.73-60.64-71-63.33-68.1-7.23-102.82,39.6-117.43,114.7-26.67,137.07,6.91,712.64,6.91,712.64,2.51-15.28,187.48-593.29,182.74-752.09Z"/><path class="cls-2" d="M219.07,571.67l-2.9,21.47-6.95-24.84c-19.53-6.15-36.5-8.26-49.95-5.2C39.1,590.41,246.76,755.67,246.76,755.67s-66.18-41.54-130.28-67.85l-.81,21.77-8.2-24.6c-49.8-19.5-96-28.51-105.24-.36-8.69,26.5,8.8,51.59,38.9,73.93l34.6,1.21-20.4,8.55c69.52,44.53,184.51,76.38,224.2,83.62-38-6-130.79-18-185.81-6.17l8.64,14.36L80.63,849.27c-19.25,6.21-31.21,16.5-29.92,32.69,2.46,30.95,136.78,42.1,136.78,42.1l490.7-4.55,2.73,1.37S377.26,629.61,219.07,571.67Z"/><path class="cls-3" d="M1758.36,858.06c-9.47-43.95-105.56-56.86-228-32.77,43.61-14.91,103.53-48.83,134.57-64.34l-21.23-13.5,42.63,2c34.87-20.41,52.3-40.46,40.91-58.6-8.5-13.55-27.17-19.18-52.46-19.12l-13.33,23.85,2.77-23.51c-63.81,3.68-78.28-6.73-164.36,28.06,53.79-27.92,61.56-36.59,65.09-47.8l-29.13-12.74h34.14c27.59-29.69,71.37-88.41,53.21-115.48-15-22.33-80.76,8.67-122.75,24.78L1482.51,589l3.62-34.33c-133.5,58.16-88.25,11.5-88.25,11.5s139.36-288.28,57.26-281.8c-32.41,2.56-67.26,22.09-101.49,53.39l-.87,28.65-10.18-18.18c-24.93,24.44-49.62,54-73.18,85.81C1301.37,367,1325.6,301.05,1328,252l-24.39-3,24.07-16.74c-2.26-24.8-12.09-43.55-32-53.46-30.53-15.21-62.56,7.8-94.1,53.52l7.79,41.26-19.57-23.12c-112.92,184-216.18,637.17-216.18,637.17l-8.19,24.57,331.77,16.39S1777.48,946.82,1758.36,858.06Z"/><path class="cls-4" d="M1920.45,930.78H21.82a5.5,5.5,0,1,1,0-11H1920.45a5.5,5.5,0,1,1,0,11Z"/><path class="cls-5" d="M1270.46,735.55H492.34c-29.72,0-53.81-21.86-53.81-48.82v-29c0-27,24.09-48.83,53.81-48.83h778.12c-35.59,35.3-36.21,89.24-1.43,125.2Z"/><path class="cls-6" d="M1259.56,623.39H868a48.83,48.83,0,0,0-48.83,48.82h0A48.83,48.83,0,0,0,868,721h391.59A93.88,93.88,0,0,1,1259.56,623.39Z"/><path class="cls-7" d="M1235.42,470.39c1.71-2.93-.88-6.31-4.82-6.31H610.91c-48.57,0-87.94,32.49-87.94,72.57h0c0,40.08,39.37,72.57,87.94,72.57h619.86c4,0,6.55-3.41,4.83-6.35h0C1211.06,560.92,1211.12,512.16,1235.42,470.39Z"/><path class="cls-6" d="M1230.48,479.69H814.71A55.61,55.61,0,0,0,759.1,535.3v4.17a55.61,55.61,0,0,0,55.61,55.61h416.66C1212.74,558.1,1212.53,516.66,1230.48,479.69Z"/><path class="cls-6" d="M481.26,457.63H881.17c35.47,0,64.22-31,64.22-69.25h0c0-38.24-28.75-69.24-64.22-69.24H481.26c30.57,38.38,31.76,94.7,2.86,134.55Z"/><path class="cls-8" d="M940.12,388.38h0c0-38.24-29.08-69.24-65-69.24H474a3.49,3.49,0,0,1-3.37-3.62h0A3.49,3.49,0,0,1,474,312H1110.4c39.59,0,71.69,34.22,71.69,76.42h0c0,42.21-32.1,76.42-71.69,76.42H474a3.48,3.48,0,0,1-3.37-3.55h0a3.49,3.49,0,0,1,3.37-3.62H875.17C911,457.63,940.12,426.62,940.12,388.38Z"/><path class="cls-9" d="M968.47,537.84h-42.8c-9.2,0-16.67,2.86-16.67,6.38v.57h59.47Z"/><path class="cls-10" d="M1005,553.83c0-8.83-11.18-16-25-16H925.09c10.45,0,18.93,5.43,18.93,12.13l-.26,171.38,30.35-22,30.93,22Z"/><path class="cls-11" d="M1590.39,735.29H434.19a65,65,0,0,0-65,65V855a65,65,0,0,0,65,65h1156.2l-.6-.63A132.38,132.38,0,0,1,1590.39,735.29Z"/><path class="cls-6" d="M1569.92,762.63H951.84a65,65,0,0,0-65,65h0a65,65,0,0,0,65,65h618.07A132.61,132.61,0,0,1,1569.92,762.63Z"/><path class="cls-12" d="M1266.45,828h-50.13a19.52,19.52,0,0,0-19.52,19.52v1.74h69.65Z"/><path class="cls-7" d="M1218.37,828.05c12,0,29.87,10.13,40,22.65l118.88,147.45,69.84,0L1334,857.88c-13.31-16.5-36.9-29.87-52.7-29.86Z"/><path class="cls-13" d="M414.64,499.25c-29.63,4.48-38.92,43.17-14.57,60.84a22.62,22.62,0,0,1,8.61,13.17l4.23,18.11a9.85,9.85,0,0,0,11,7.48l11.22-1.7a9.84,9.84,0,0,0,8.34-10.41c-1.32-18.65-3.15-25.44,3-33.67C464.57,529,444.27,494.77,414.64,499.25Z"/><path class="cls-6" d="M421.11,584.7h0a2.74,2.74,0,0,1-3.08-2.33l-5.52-39.48L403.23,535a2.73,2.73,0,0,1,3.55-4.15l10.81,9.27,5.81,41.53A2.72,2.72,0,0,1,421.11,584.7Z"/><path class="cls-6" d="M434.85,584.31h0a2.72,2.72,0,0,0,2.25-3.12l-6.4-39.36,6.5-10.3a2.73,2.73,0,0,0-4.62-2.91l-7.59,12,6.73,41.39A2.73,2.73,0,0,0,434.85,584.31Z"/><path class="cls-1" d="M408.55,572.81c0,.15.09.3.13.45l4.23,18.11a9.85,9.85,0,0,0,11,7.48l11.22-1.7a9.84,9.84,0,0,0,8.34-10.41c-.59-8.3-1.27-14.24-1.31-19Z"/><path class="cls-14" d="M1461.37,94.46,1452.75,82l-15.17,0a2.09,2.09,0,0,1-1.66-3.35l9.2-12-4.72-14.41a2.09,2.09,0,0,1,2.67-2.62l14.31,5,12.24-8.93a2.09,2.09,0,0,1,3.32,1.73l-.36,15.15,12.29,8.89a2.08,2.08,0,0,1-.63,3.68l-14.52,4.35-4.65,14.43A2.09,2.09,0,0,1,1461.37,94.46Z"/><path class="cls-15" d="M354.91,328.42,334,341.13l21.67,97.36a12.58,12.58,0,0,0,18.82,8h0a12.57,12.57,0,0,0,5.72-13.58l-5.3-22.86,21.92-13.34L415,411.89A12.59,12.59,0,0,0,429.6,413l.39-.24a12.58,12.58,0,0,0,1.52-20.41ZM369,387.08l-4-17.89L379.11,381Z"/><path class="cls-13" d="M1528,292.26c1.07-2.76.7-12.64,14.42-22.13,5.64-3.86,10.27-7.15,11.52-11.66,2.16-7.77-6-11.51-14.18-11.47a7.81,7.81,0,0,1-7.8-7.57h0a7.84,7.84,0,0,1,7.47-8.08,50.66,50.66,0,0,1,16,1.83c17.5,4.85,22.77,16.74,19.72,27.74-2.8,10.08-10.87,15-17.46,19.15-11.08,7-11.07,14.88-12,17.08Zm-8.53,17.33c2-7,8.26-10.7,15.15-8.79,7.16,2,10.4,8.32,8.58,15.38-1.91,6.9-8.12,10.74-15.28,8.75S1517.56,316.49,1519.47,309.59Z"/><path class="cls-13" d="M827.27,62.55c-27.26,0-40.87,33.52-21.37,52.73a20.51,20.51,0,0,1,5.94,13l1.35,16.86a8.94,8.94,0,0,0,8.91,8.23h10.33a8.94,8.94,0,0,0,8.91-8.23c1.36-17,.63-23.31,7.29-29.87C868.13,96.08,854.52,62.55,827.27,62.55Z"/><path class="cls-6" d="M821.47,140.27h0a2.48,2.48,0,0,1-2.45-2.51l.4-36.26-7.24-8.38a2.48,2.48,0,1,1,3.75-3.24l8.47,9.8L824,137.82A2.49,2.49,0,0,1,821.47,140.27Z"/><path class="cls-6" d="M833.88,141.78h0a2.46,2.46,0,0,0,2.45-2.5L836,103l7.24-8.38a2.48,2.48,0,1,0-3.75-3.25L831,101.2l.43,38.13A2.47,2.47,0,0,0,833.88,141.78Z"/><path class="cls-1" d="M811.79,127.87c0,.14,0,.28.05.42l1.35,16.86a8.94,8.94,0,0,0,8.91,8.23h10.33a8.94,8.94,0,0,0,8.91-8.23c.6-7.54.8-13,1.41-17.28Z"/><polygon class="cls-6" points="879.7 16.39 856.15 56.33 896.09 26.63 879.7 16.39"/><polygon class="cls-6" points="783.93 6.09 808.01 47.11 803.92 0 783.93 6.09"/><polygon class="cls-6" points="742.05 64.81 780.36 79.88 741.26 82.23 742.05 64.81"/><polygon class="cls-6" points="860.25 118.8 875.61 138.26 886.87 124.94 860.25 118.8"/><polygon class="cls-6" points="875.61 82.95 910.43 68.62 911.45 83.98 875.61 82.95"/><polygon class="cls-6" points="784.46 121.87 751.69 137.23 761.93 149.52 784.46 121.87"/><path class="cls-1" d="M631.08,167.73c5.35.43,15.83,2.61,25.46,5.36,11.78,3.37,18.67,6.57,23.83,12a19.31,19.31,0,0,1,5.48,19.65c-2.17,7.6-8.63,13.43-19.27,14.22l-.08.26c9,5.44,14.12,14.85,11,25.87a23.65,23.65,0,0,1-14.05,15.58c-7.61,3.17-18.8,3-35.77-1.86a156.44,156.44,0,0,1-20.54-7.24Zm9.78,38.15,6.34,1.81c10.13,2.89,16.77.27,18.58-6.06s-2.11-11.29-10.86-13.79a54.58,54.58,0,0,0-8.37-1.85ZM630,243.75a62.73,62.73,0,0,0,7.4,2.39c8.74,2.5,17.41,1.42,20-7.58,2.46-8.61-4.29-14.24-13.92-17l-6.58-1.88Z"/><path class="cls-13" d="M1338.52,89.51a8.91,8.91,0,0,1-6.56,10.67,83.33,83.33,0,0,1-16.51,2.12c-33.65,1.13-51.69-19.22-52.62-46.95-1.12-33.21,21.94-52.5,51.4-53.49a74.09,74.09,0,0,1,15.16,1,8.93,8.93,0,0,1,7.16,10.73l-.07.31a8.92,8.92,0,0,1-10.22,6.89,49.58,49.58,0,0,0-10.41-.73c-17.47.59-30.69,11.59-30,33.25.66,19.5,12.63,31.38,32.27,30.72a58.83,58.83,0,0,0,9.85-1.24,8.91,8.91,0,0,1,10.51,6.76Z"/><path class="cls-8" d="M247.25,542.55a13.64,13.64,0,0,1,8.55-17.11c7.27-2.4,13.9,1.17,16.66,8.41s-.31,14.53-7.88,17.26S249.78,550.07,247.25,542.55Zm-2.38-21.1-22.66-54.12a8.48,8.48,0,0,1,4.95-11.26l5.52-2a8.49,8.49,0,0,1,11,5.5l17.18,56.12Z"/><circle class="cls-16" cx="971.13" cy="23.55" r="12.62"/></g></g></svg>