<svg width="311" height="323" viewBox="0 0 311 323" fill="none" xmlns="http://www.w3.org/2000/svg">
<path d="M166.805 76.7944C100.243 107.191 97.0412 120.288 103.76 123.037C85.3765 146.145 29.6705 120.47 30.2191 191.604C30.7678 262.738 1.74598 229.597 113.703 280.569C225.661 331.541 197.279 233.373 328.759 249.615C460.239 265.858 393.369 241.604 457.104 171.903C520.839 102.202 539.539 118.844 498.305 81.742C457.072 44.6396 385.102 43.4351 319.636 47.0495C254.17 50.6639 250.006 38.7982 166.805 76.7944Z" stroke="#5496FB"/>
<path d="M187.494 164.037C131.445 185.847 141.254 204.473 131.857 243.57C117.846 265.312 161.019 283.783 166.812 254.768C170.868 220.006 178.209 243.423 197.954 217.777C217.698 192.131 207.579 198.917 263.761 149.193C319.944 99.4693 243.544 142.226 187.494 164.037Z" stroke="#5496FB"/>
<path d="M163.365 81.4427C99.7003 110.976 96.6555 124.137 102.831 127.685C84.6554 150.728 33.6578 127.156 34.4563 193.521C35.0754 260.44 7.57121 228.742 114.426 277.206C221.281 325.67 194.573 232.15 320.263 247.008C446.422 261.256 382.255 238.48 445.63 169.73C507.668 102.165 525.236 117.932 485.057 82.939C444.879 47.9462 374.76 47.5677 311.077 51.5293C247.394 55.4908 242.877 44.6715 163.365 81.4427Z" stroke="#5496FB"/>
<path d="M159.929 86.1056C99.1619 114.776 96.2744 128 101.906 132.349C83.9388 155.326 37.6498 133.856 38.698 195.452C39.3876 258.156 13.4011 227.901 115.154 273.857C216.907 319.813 191.873 230.941 311.771 244.416C432.61 256.669 371.145 235.371 434.161 167.573C494.501 102.142 510.938 117.034 471.814 84.1505C432.69 51.2673 364.422 51.7149 302.521 56.0236C240.621 60.3324 235.752 50.5595 159.929 86.1056Z" stroke="#5496FB"/>
<path d="M156.5 90.7854C98.629 118.593 95.8989 131.88 100.987 137.029C83.2278 159.942 41.6473 140.574 42.9453 197.4C43.7053 255.889 19.2365 227.077 115.887 270.525C212.538 313.973 189.178 229.75 303.285 241.84C418.803 252.098 360.04 232.279 422.697 165.432C481.34 102.136 496.646 116.152 458.577 85.3789C420.508 54.6054 354.089 55.879 293.972 60.5349C233.855 65.1908 228.634 56.4644 156.5 90.7854Z" stroke="#5496FB"/>
<path d="M153.076 95.4852C98.1024 122.429 95.5297 135.78 100.074 141.729C82.5231 164.577 45.6511 147.311 47.1988 199.369C48.0293 253.642 25.0782 226.274 116.627 267.214C208.175 308.154 186.489 228.578 294.806 239.284C405.003 247.548 348.942 229.207 411.239 163.311C468.185 102.15 482.36 115.291 445.345 86.6273C408.331 57.9635 343.763 60.0631 285.429 65.0662C227.094 70.0693 221.521 62.3892 153.076 95.4852Z" stroke="#5496FB"/>
<path d="M149.66 100.209C97.5833 126.29 95.168 139.704 99.1686 146.453C81.826 169.235 49.6625 154.072 51.4599 201.36C52.3609 251.419 30.9274 225.494 117.373 263.926C203.82 302.357 183.807 227.43 286.333 236.752C391.21 243.021 337.852 226.158 399.789 161.213C455.037 102.188 468.081 114.454 432.121 87.8994C396.162 61.3452 333.444 64.2708 276.893 69.6211C220.341 74.9714 214.416 68.3377 149.66 100.209Z" stroke="#5496FB"/>
<path d="M146.254 104.961C97.0739 130.179 94.816 143.656 98.2729 151.205C81.1384 173.923 53.6835 160.861 55.7307 203.381C56.7021 249.225 36.7862 224.742 118.13 260.666C199.474 296.59 181.136 226.311 277.871 234.249C377.427 238.523 326.771 223.138 388.348 159.145C441.9 102.255 453.812 113.645 418.907 89.2C384.003 64.7554 323.135 68.5071 268.367 74.2045C213.598 79.902 207.321 74.3148 146.254 104.961Z" stroke="#5496FB"/>
<path d="M142.859 109.747C96.5755 134.102 94.4751 147.643 97.3883 155.992C80.462 178.645 57.7156 167.685 60.0125 205.436C61.0544 247.065 42.6562 224.026 118.898 257.441C195.139 290.857 178.475 225.226 269.42 231.78C363.655 234.059 315.701 220.153 376.919 157.111C428.773 102.356 439.554 112.87 405.704 90.5354C371.854 68.2004 312.837 72.7781 259.852 78.8227C206.866 84.8673 200.236 80.3266 142.859 109.747Z" stroke="#5496FB"/>
<path d="M139.478 114.577C96.0916 138.069 94.1486 151.674 96.5181 160.822C79.8 183.41 61.7621 174.552 64.3088 207.534C65.4211 244.948 48.5406 223.352 119.68 254.26C190.819 285.167 175.829 224.184 260.983 229.354C349.897 229.639 304.646 217.21 365.504 155.119C415.661 102.5 425.311 112.139 392.516 91.9137C359.72 71.6884 302.554 77.0921 251.351 83.4839C200.148 89.8757 193.166 86.3814 139.478 114.577Z" stroke="#5496FB"/>
<path d="M136.115 119.461C95.6253 142.089 93.8396 155.758 95.6654 165.707C79.1555 188.229 65.8262 181.474 68.6226 209.687C69.8054 242.886 54.4426 222.732 120.48 251.132C186.517 279.532 173.201 223.197 252.563 226.983C336.157 225.273 293.608 214.322 354.107 153.183C402.566 102.698 411.085 111.462 379.345 93.3464C347.604 75.2308 292.288 81.4604 242.868 88.1994C193.448 94.9384 186.114 92.4905 136.115 119.461Z" stroke="#5496FB"/>
<path d="M132.776 124.415C95.1827 146.181 93.5544 159.913 94.8366 170.661C78.5349 193.118 69.914 188.466 72.9602 211.909C74.2135 240.893 60.3683 222.183 121.303 248.075C182.238 273.966 170.596 222.28 244.168 224.681C322.44 220.977 282.594 211.504 342.733 151.316C389.495 102.967 396.883 110.855 366.197 94.8493C335.512 78.8433 282.045 85.899 234.409 92.9851C186.772 100.071 179.085 98.6698 132.776 124.415Z" stroke="#5496FB"/>
<path d="M129.469 129.464C94.7722 150.366 93.3013 164.161 94.0398 175.71C77.9463 198.102 74.034 195.552 77.3299 214.226C78.6536 238.995 66.3261 221.728 122.159 245.112C177.991 268.495 168.023 221.457 235.804 222.475C308.756 216.775 271.612 208.781 331.392 149.544C376.456 103.33 382.713 110.343 353.082 96.4464C323.451 82.5501 271.835 90.4318 225.981 97.8651C180.127 105.298 172.089 104.943 129.469 129.464Z" stroke="#5496FB"/>
<path d="M126.206 134.647C94.4066 154.685 93.0932 168.544 93.2879 180.893C77.4026 203.22 78.1988 202.772 81.7445 216.677C83.1386 237.231 72.3288 221.407 123.059 242.283C173.79 263.158 165.495 220.768 227.485 220.402C295.117 212.708 260.676 206.191 320.095 147.906C363.462 103.827 368.588 109.964 340.012 98.1776C311.436 86.3909 261.67 95.0986 217.599 102.879C173.528 110.66 165.137 111.351 126.206 134.647Z" stroke="#5496FB"/>
<path d="M123.717 139.913C94.8139 159.089 93.6578 173.011 93.3089 186.16C77.6317 208.422 83.1365 210.076 86.9319 219.212C88.3965 235.551 79.1044 221.17 124.733 239.538C170.361 257.906 163.74 220.163 219.939 218.413C282.25 208.724 250.511 203.686 309.571 146.352C351.241 104.408 355.236 109.67 327.714 99.9928C300.193 90.3158 252.278 99.8495 209.99 107.977C167.701 116.105 158.959 117.843 123.717 139.913Z" stroke="#5496FB"/>
<path d="M124.214 145.3C98.2079 163.612 97.2092 177.599 96.3166 191.547C80.8476 213.744 91.0609 217.5 95.1061 221.868C96.6411 233.992 88.8667 221.054 129.393 236.913C169.919 252.773 164.972 219.679 215.38 216.544C272.37 204.861 243.334 201.301 302.034 144.918C342.007 105.109 344.87 109.496 318.403 101.928C291.937 94.361 245.872 104.721 205.367 113.196C164.862 121.671 155.767 124.455 124.214 145.3Z" stroke="#5496FB"/>
<path d="M125.54 151.067C102.43 168.516 101.589 182.566 100.153 197.314C84.8921 219.446 99.8139 225.304 104.109 224.903C105.714 232.812 99.4575 221.317 134.881 234.669C170.305 248.02 167.032 219.574 211.65 215.055C263.319 201.378 236.985 199.295 295.326 143.864C333.601 106.191 335.333 109.702 309.921 104.244C284.509 98.7861 240.295 109.972 201.573 118.794C162.85 127.616 153.403 131.447 125.54 151.067Z" stroke="#5496FB"/>
<path d="M127.429 157.208C107.217 173.794 106.533 187.907 104.553 203.455C89.5003 225.522 109.131 233.482 113.675 228.312C115.351 232.006 110.612 221.954 140.934 232.798C171.255 243.641 169.656 219.843 208.483 213.941C254.832 198.268 231.2 197.664 289.181 143.184C325.759 107.646 326.36 110.281 302.003 106.933C277.646 103.585 235.282 115.597 198.342 124.766C161.403 133.935 151.604 138.812 127.429 157.208Z" stroke="#5496FB"/>
<path d="M129.741 163.804C112.425 179.527 111.898 193.704 109.375 210.052C94.5303 232.054 118.869 242.117 123.664 232.177C125.41 231.656 122.189 223.048 147.408 231.383C172.627 239.719 172.702 220.569 205.738 213.282C246.766 195.615 225.837 196.489 283.458 142.96C318.339 109.557 317.809 111.317 294.506 110.079C271.204 108.84 230.69 121.678 195.534 131.194C160.377 140.711 150.226 146.634 129.741 163.804Z" stroke="#5496FB"/>
<path d="M132.396 170.962C117.977 185.822 117.608 200.062 114.541 217.211C99.9045 239.147 128.952 251.312 133.996 236.604C135.813 231.868 134.109 224.702 154.226 230.53C174.343 236.357 176.092 221.855 203.337 213.184C239.045 193.522 220.818 195.875 278.079 143.297C311.263 112.029 309.602 112.914 287.354 113.785C265.106 114.656 226.443 128.32 193.069 138.184C159.696 148.047 149.192 155.017 132.396 170.962Z" stroke="#5496FB"/>
<path d="M135.357 178.813C123.835 192.81 123.623 207.113 120.012 225.062C105.584 246.934 139.34 261.2 144.634 241.723C146.522 232.772 146.335 227.05 161.35 230.369C176.365 233.688 179.788 223.835 201.242 213.78C231.629 192.123 216.104 195.954 273.006 144.327C304.492 115.195 301.7 115.204 280.507 118.185C259.314 121.165 222.501 135.655 190.911 145.866C159.32 156.077 148.464 164.093 135.357 178.813Z" stroke="#5496FB"/>
<path d="M138.642 187.667C130.017 200.8 129.962 215.168 125.808 233.916C111.588 255.723 150.052 272.092 155.596 247.845C157.554 234.679 158.885 230.4 168.798 231.211C178.71 232.023 183.808 226.817 199.471 215.378C224.536 191.727 211.714 197.035 268.257 146.36C298.045 119.363 294.122 118.497 273.984 123.587C253.846 128.678 218.883 143.994 189.075 154.551C159.268 165.109 148.06 174.172 138.642 187.667Z" stroke="#5496FB"/>
</svg>
