<svg xmlns="http://www.w3.org/2000/svg" viewBox="0 0 603.74 393.89"><defs><style>.cls-1{isolation:isolate;}.cls-11,.cls-2{fill:#ffdee1;}.cls-14,.cls-3{fill:#ff796d;}.cls-3{opacity:0.55;}.cls-13,.cls-4,.cls-9{fill:#fff;}.cls-4,.cls-5{stroke:#ff796d;stroke-width:2px;}.cls-12,.cls-13,.cls-4,.cls-5,.cls-7{stroke-miterlimit:10;}.cls-12,.cls-15,.cls-5,.cls-7{fill:none;}.cls-6{fill:#ffeef0;}.cls-7{stroke:#277ef1;}.cls-12,.cls-13,.cls-7{stroke-width:1.5px;}.cls-8{fill:#277ef1;}.cls-10{fill:#e0ebfc;opacity:0.75;}.cls-11{mix-blend-mode:multiply;opacity:0.65;}.cls-12,.cls-13{stroke:#ff928d;}.cls-14{opacity:0.35;}.cls-15{stroke:#fff;stroke-linecap:round;stroke-linejoin:round;stroke-width:3.5px;}</style></defs><g class="cls-1"><g id="Layer_2" data-name="Layer 2"><g id="OBJECTS"><path class="cls-2" d="M363.6,315.58h-110s4.56,70.08-17.22,70.08H380.82C359,385.66,363.6,315.58,363.6,315.58Z"/><path class="cls-3" d="M252.33,357.71l110.92-22.47c-.21-11.12.35-19.66.35-19.66h-110S255.05,338.18,252.33,357.71Z"/><rect class="cls-2" x="87.82" y="46.98" width="441.53" height="289.73" rx="18.42"/><rect class="cls-4" x="100.22" y="57.25" width="416.74" height="269.2" rx="14.75"/><line class="cls-5" x1="100.22" y1="91.2" x2="516.96" y2="91.2"/><path class="cls-6" d="M466.91,80.62H179.81a7.12,7.12,0,0,1-7.13-7.12h0a7.13,7.13,0,0,1,7.13-7.12h287.1A7.12,7.12,0,0,1,474,73.5h0A7.12,7.12,0,0,1,466.91,80.62Z"/><path class="cls-7" d="M120.67,73.85a3.8,3.8,0,1,1-3.8-3.8A3.8,3.8,0,0,1,120.67,73.85Z"/><path class="cls-7" d="M138.41,73.85a3.8,3.8,0,1,1-3.8-3.8A3.8,3.8,0,0,1,138.41,73.85Z"/><path class="cls-7" d="M156.14,73.85a3.8,3.8,0,1,1-3.8-3.8A3.8,3.8,0,0,1,156.14,73.85Z"/><path class="cls-7" d="M424.9,188.74H192.28a16,16,0,0,1-16-16h0a16,16,0,0,1,16-15.95H424.9a16,16,0,0,1,16,15.95h0A16,16,0,0,1,424.9,188.74Z"/><path class="cls-8" d="M424.9,156.83H398.12v31.91H424.9a16,16,0,0,0,16-16h0A16,16,0,0,0,424.9,156.83Z"/><path class="cls-9" d="M429.56,180.48l-5.28-5.28a8.34,8.34,0,1,0-2.82,2.39l5.5,5.5a1.84,1.84,0,0,0,2.6-2.61Zm-6-10.24a6,6,0,1,1-5.95-6A6,6,0,0,1,423.59,170.24Z"/><path class="cls-10" d="M259.24,179.65H192.67a6.86,6.86,0,0,1-6.87-6.87h0a6.86,6.86,0,0,1,6.87-6.86h66.57a6.87,6.87,0,0,1,6.87,6.86h0A6.87,6.87,0,0,1,259.24,179.65Z"/><rect class="cls-2" x="216.71" y="383.66" width="183.76" height="10.23"/><rect class="cls-10" x="224.64" y="208.61" width="60.4" height="15.35" rx="7.67"/><line class="cls-7" x1="232.9" y1="218.2" x2="276.78" y2="218.2"/><rect class="cls-10" x="297.21" y="208.61" width="95.32" height="15.35" rx="7.67"/><line class="cls-7" x1="313.94" y1="218.2" x2="375.81" y2="218.2"/><line class="cls-7" x1="435.33" y1="104.06" x2="452.19" y2="104.06"/><line class="cls-7" x1="460.35" y1="104.06" x2="477.21" y2="104.06"/><rect class="cls-10" x="483.28" y="99.49" width="2.27" height="2.27"/><rect class="cls-10" x="486.45" y="99.49" width="2.27" height="2.27"/><rect class="cls-10" x="489.61" y="99.49" width="2.27" height="2.27"/><rect class="cls-10" x="483.28" y="102.92" width="2.27" height="2.27"/><rect class="cls-10" x="486.45" y="102.92" width="2.27" height="2.27"/><rect class="cls-10" x="489.61" y="102.92" width="2.27" height="2.27"/><rect class="cls-10" x="483.28" y="106.36" width="2.27" height="2.27"/><rect class="cls-10" x="486.45" y="106.36" width="2.27" height="2.27"/><rect class="cls-10" x="489.61" y="106.36" width="2.27" height="2.27"/><circle class="cls-10" cx="501.25" cy="104.06" r="5.75"/><path class="cls-11" d="M203.28,117.27H87.82v43.49H203.28a4.67,4.67,0,0,0,4.65-4.7V122A4.68,4.68,0,0,0,203.28,117.27Z"/><circle class="cls-8" cx="505.45" cy="66.38" r="1.5"/><circle class="cls-8" cx="505.45" cy="73.5" r="1.5"/><circle class="cls-8" cx="505.45" cy="80.62" r="1.5"/><line class="cls-12" x1="375.81" y1="384.21" x2="281.78" y2="384.21"/><line class="cls-12" x1="271.23" y1="384.21" x2="240.53" y2="384.21"/><rect class="cls-11" x="291" y="243.43" width="211.93" height="66.13" rx="7.15"/><rect class="cls-13" x="282.1" y="237.49" width="211.93" height="66.13" rx="7.15"/><path class="cls-6" d="M480,267.72h-124a3.81,3.81,0,0,1-3.82-3.81h0a3.81,3.81,0,0,1,3.82-3.81H480a3.81,3.81,0,0,1,3.81,3.81h0A3.81,3.81,0,0,1,480,267.72Z"/><path class="cls-6" d="M480,281h-124a3.81,3.81,0,0,1-3.82-3.81h0a3.81,3.81,0,0,1,3.82-3.81H480a3.81,3.81,0,0,1,3.81,3.81h0A3.81,3.81,0,0,1,480,281Z"/><path class="cls-6" d="M480,254.43h-124a3.81,3.81,0,0,1-3.82-3.81h0a3.81,3.81,0,0,1,3.82-3.81H480a3.81,3.81,0,0,1,3.81,3.81h0A3.81,3.81,0,0,1,480,254.43Z"/><rect class="cls-6" x="352.12" y="286.68" width="35.08" height="7.63" rx="3.81"/><rect class="cls-14" x="290.1" y="246.81" width="47.5" height="47.5" rx="5.37"/><polygon class="cls-9" points="308.56 256.31 295.45 281.57 321.67 281.57 308.56 256.31"/><polygon class="cls-9" points="322.56 264.61 319.41 270.69 325.05 281.57 331.36 281.57 322.56 264.61"/><path class="cls-9" d="M329.57,259.88a2.74,2.74,0,1,1-2.74-2.73A2.74,2.74,0,0,1,329.57,259.88Z"/><rect class="cls-11" x="337.85" y="49.1" width="154.76" height="63.51" rx="6.86"/><rect class="cls-13" x="327.31" y="42.4" width="154.76" height="63.51" rx="6.86"/><path class="cls-6" d="M467.58,71.43H397.22a3.66,3.66,0,0,1-3.66-3.66h0a3.66,3.66,0,0,1,3.66-3.67h70.36a3.66,3.66,0,0,1,3.66,3.67h0A3.66,3.66,0,0,1,467.58,71.43Z"/><path class="cls-6" d="M467.58,84.19H397.22a3.66,3.66,0,0,1-3.66-3.66h0a3.66,3.66,0,0,1,3.66-3.66h70.36a3.66,3.66,0,0,1,3.66,3.66h0A3.66,3.66,0,0,1,467.58,84.19Z"/><path class="cls-6" d="M467.58,58.67H397.22A3.66,3.66,0,0,1,393.56,55h0a3.66,3.66,0,0,1,3.66-3.66h70.36A3.66,3.66,0,0,1,471.24,55h0A3.66,3.66,0,0,1,467.58,58.67Z"/><path class="cls-6" d="M423.59,97H397.22a3.66,3.66,0,0,1-3.66-3.67h0a3.66,3.66,0,0,1,3.66-3.66h26.37a3.66,3.66,0,0,1,3.66,3.66h0A3.66,3.66,0,0,1,423.59,97Z"/><path class="cls-6" d="M381.22,72.82a22,22,0,0,0-.91-5,21.36,21.36,0,0,0-2-4.65l-4.18,2a17,17,0,0,0-2.9-3.52l2.75-3.72A21.82,21.82,0,0,0,365,53.15l-1.56,4.36a16.8,16.8,0,0,0-4.54-.45l-.69-4.57a22,22,0,0,0-5,.91,21.57,21.57,0,0,0-4.65,2l2,4.18a16.69,16.69,0,0,0-3.51,2.9l-3.73-2.75a21.94,21.94,0,0,0-4.75,8.91l4.36,1.56a16.79,16.79,0,0,0-.44,4.54l-4.57.69a21.48,21.48,0,0,0,.9,5,22.08,22.08,0,0,0,2,4.65l4.18-2a16.69,16.69,0,0,0,2.9,3.51l-2.74,3.73a21.93,21.93,0,0,0,8.91,4.75l1.56-4.36a16.72,16.72,0,0,0,4.53.44l.7,4.57a21.39,21.39,0,0,0,5-.9,21.85,21.85,0,0,0,4.65-2l-2-4.18a17,17,0,0,0,3.52-2.9l3.72,2.74a21.69,21.69,0,0,0,4.75-8.91l-4.36-1.56a17.13,17.13,0,0,0,.45-4.53ZM362.61,84.15a10.45,10.45,0,1,1,6.95-13.05A10.46,10.46,0,0,1,362.61,84.15Z"/><rect class="cls-13" x="59.83" y="107.48" width="145.71" height="43.16" rx="4.66"/><path class="cls-6" d="M196.37,127.21H108a2.48,2.48,0,0,1-2.49-2.49h0a2.49,2.49,0,0,1,2.49-2.49h88.35a2.5,2.5,0,0,1,2.49,2.49h0A2.49,2.49,0,0,1,196.37,127.21Z"/><path class="cls-6" d="M196.37,135.89H108a2.49,2.49,0,0,1-2.49-2.49h0a2.48,2.48,0,0,1,2.49-2.49h88.35a2.49,2.49,0,0,1,2.49,2.49h0A2.5,2.5,0,0,1,196.37,135.89Z"/><path class="cls-6" d="M196.37,118.54H108a2.49,2.49,0,0,1-2.49-2.49h0a2.49,2.49,0,0,1,2.49-2.49h88.35a2.5,2.5,0,0,1,2.49,2.49h0A2.5,2.5,0,0,1,196.37,118.54Z"/><path class="cls-6" d="M166.47,144.56H108a2.48,2.48,0,0,1-2.49-2.49h0a2.49,2.49,0,0,1,2.49-2.49h58.45a2.49,2.49,0,0,1,2.49,2.49h0A2.48,2.48,0,0,1,166.47,144.56Z"/><rect class="cls-3" x="69.83" y="115.21" width="27.7" height="27.7" rx="3.13"/><path class="cls-9" d="M79,122.17V136a1.42,1.42,0,0,0,2.26,1.14l9.44-6.89a1.43,1.43,0,0,0,0-2.3L81.29,121A1.42,1.42,0,0,0,79,122.17Z"/><path class="cls-6" d="M71.18,220.43a5.08,5.08,0,1,1-5.08-5.08A5.08,5.08,0,0,1,71.18,220.43Z"/><path class="cls-6" d="M603.53,123.28a6.63,6.63,0,1,1-6.63-6.63A6.63,6.63,0,0,1,603.53,123.28Z"/><path class="cls-6" d="M261.4,5.08A5.08,5.08,0,1,1,256.32,0,5.08,5.08,0,0,1,261.4,5.08Z"/><circle class="cls-5" cx="62.08" cy="217.33" r="3.17"/><path class="cls-5" d="M229.64,18.41a3.18,3.18,0,1,1-3.17-3.18A3.17,3.17,0,0,1,229.64,18.41Z"/><circle class="cls-5" cx="43.39" cy="105.19" r="3.17"/><path class="cls-5" d="M553.93,140.58a3.18,3.18,0,1,1-3.18-3.17A3.18,3.18,0,0,1,553.93,140.58Z"/><circle class="cls-5" cx="570.41" cy="250.62" r="3.17"/><path class="cls-5" d="M459.66,17.37l-2,7.93c-.17.67.66,1.29,1.41,1.05L466.65,24a.77.77,0,0,0,.33-1.33L461.4,17.1C460.84,16.54,459.82,16.7,459.66,17.37Z"/><path class="cls-5" d="M189.86,358.5l-7.93,2a1,1,0,0,0-.27,1.74l5.6,5.58a.76.76,0,0,0,1.32-.33l2.33-7.55C191.14,359.16,190.53,358.33,189.86,358.5Z"/><path class="cls-5" d="M1.07,201.68l3.47,7.4c.29.63,1.32.58,1.76-.07l4.39-6.58a.76.76,0,0,0-.58-1.23l-7.86-.82C1.47,200.29.78,201.06,1.07,201.68Z"/><path class="cls-5" d="M595.36,219.73l7-4.2c.6-.35.45-1.37-.25-1.74l-7-3.71a.77.77,0,0,0-1.17.7l0,7.91C593.94,219.48,594.77,220.09,595.36,219.73Z"/><circle class="cls-6" cx="219.48" cy="260.94" r="21.56"/><rect class="cls-9" x="205.92" y="253.81" width="19.6" height="15.23" rx="1.88"/><path class="cls-9" d="M233.3,267.59l-5.68-2.7V258l5.68-2.7a.55.55,0,0,1,.79.5v11.32A.55.55,0,0,1,233.3,267.59Z"/><circle class="cls-6" cx="575.1" cy="90.63" r="21.56" transform="translate(355.93 630) rotate(-76.84)"/><polyline class="cls-15" points="563.15 89.69 572.09 99.49 587.04 82.12"/></g></g></g></svg>