<svg xmlns="http://www.w3.org/2000/svg" viewBox="0 0 411.88 309.62"><defs><style>.cls-1{opacity:0.2;}.cls-2{fill:#723891;}.cls-3{fill:#fff;}.cls-4{fill:#4cd984;}.cls-5{fill:#562e70;}.cls-6{opacity:0.15;}.cls-7{fill:#c470ff;}.cls-8{fill:#ccc;}.cls-9{fill:#e6e6e6;}.cls-10{fill:#fff373;}.cls-11{opacity:0.5;}</style></defs><g id="Layer_2" data-name="Layer 2"><g id="OBJECTS"><g class="cls-1"><path class="cls-2" d="M213.45,22.89h0a151,151,0,0,1,151,151V225.1a0,0,0,0,1,0,0h-302a0,0,0,0,1,0,0V173.88A151,151,0,0,1,213.45,22.89Z"/></g><path class="cls-3" d="M132.48,62.47a12.63,12.63,0,0,1,12.39-10.21,12.43,12.43,0,0,1,5,1,20.23,20.23,0,0,1,39.65,0,12.48,12.48,0,0,1,5-1,12.64,12.64,0,0,1,12.39,10.21Z"/><path class="cls-4" d="M34.52,237.15c.09-1.94.22-3.87.44-5.8,2.4-21.94,14.26-45,37-53.49,24.52-9.09,52.41,1.57,74.82,14.3,13.72,7.79,29.55,16.84,45,12.34,16-4.68,22.64-21.21,28.63-35.3,9.25-21.76,23.92-43.92,48.23-52.23,22.13-7.56,53.46-2.65,70.1,12.85C385,172.9,381.47,223.2,381.47,237.15,381.47,238.44,34.52,237.15,34.52,237.15Z"/><g class="cls-1"><path class="cls-2" d="M392.29,299.63a10,10,0,0,0-10-10H342.56a5,5,0,0,1-5-5.15,5.13,5.13,0,0,1,5.2-4.84h7a10,10,0,0,0,10-10h0a10,10,0,0,0-10-10l-339.58-.19A10.18,10.18,0,0,0,0,269.63a10,10,0,0,0,10,9.8H92.68a5.14,5.14,0,0,1,5.2,4.84,5,5,0,0,1-5,5.15h-16a10.21,10.21,0,0,0-10.32,9.81,10,10,0,0,0,10,10.18l305.76.21a10,10,0,0,0,10-10Z"/></g><path class="cls-5" d="M37.92,235.81l341.83-.26a12.49,12.49,0,0,1,12.54,12.51,12.26,12.26,0,0,1-12.27,12H250.28a6.27,6.27,0,0,0-6.34,6,6.14,6.14,0,0,0,6.14,6.25h11.67a12.5,12.5,0,0,1,12.55,12.51,12.28,12.28,0,0,1-12.27,12l-200.12.26a12.27,12.27,0,0,1-12.27-12,12.49,12.49,0,0,1,12.54-12.51h63.05a6.14,6.14,0,0,0,6.14-6.25,6.27,6.27,0,0,0-6.34-6H37.65a12.27,12.27,0,0,1-12.27-12A12.49,12.49,0,0,1,37.92,235.81Z"/><path class="cls-5" d="M298.55,297.17H336a12.41,12.41,0,0,0,12.41-12.4h0A12.41,12.41,0,0,0,336,272.36H298.55a12.41,12.41,0,0,0-12.41,12.41h0A12.41,12.41,0,0,0,298.55,297.17Z"/><g class="cls-6"><path d="M360.26,249.09H328.41a6.92,6.92,0,0,1-6.92-6.92h0a6.92,6.92,0,0,1,6.92-6.93h31.85a6.93,6.93,0,0,1,6.93,6.93h0A6.92,6.92,0,0,1,360.26,249.09Z"/></g><path class="cls-2" d="M344.34,243h0a26.29,26.29,0,0,1-26.29-26.29V192.53a26.29,26.29,0,0,1,26.29-26.29h0a26.28,26.28,0,0,1,26.28,26.29v24.14A26.28,26.28,0,0,1,344.34,243Z"/><rect class="cls-5" x="342.91" y="193.56" width="2.86" height="49.39"/><rect class="cls-5" x="337.33" y="199.98" width="2.86" height="19" transform="translate(-58.45 238.84) rotate(-35.96)"/><rect class="cls-5" x="340.85" y="222.92" width="18.27" height="2.86" transform="translate(-37.14 375.88) rotate(-54.04)"/><rect class="cls-7" x="177.48" y="197.9" width="54.15" height="46.02"/><rect class="cls-5" x="228.96" y="213.94" width="7.89" height="29.98" transform="translate(465.82 457.86) rotate(180)"/><rect class="cls-5" x="215.54" y="241.44" width="21.31" height="7.9"/><rect class="cls-2" x="159.69" y="241.44" width="55.84" height="7.9"/><rect class="cls-5" x="177.48" y="210.66" width="59.37" height="17.13"/><rect class="cls-5" x="135.49" y="38.06" width="147.56" height="211.8" rx="6.36" transform="translate(65.31 353.23) rotate(-90)"/><rect class="cls-2" x="131.28" y="38.06" width="147.56" height="211.8" rx="6.36" transform="translate(61.1 349.02) rotate(-90)"/><path class="cls-2" d="M304.6,219H105.52a7.59,7.59,0,0,1-7.58-7.58V76.54A7.59,7.59,0,0,1,105.52,69H304.6a7.59,7.59,0,0,1,7.58,7.58V211.38A7.59,7.59,0,0,1,304.6,219ZM105.52,71.4a5.14,5.14,0,0,0-5.14,5.14V211.38a5.14,5.14,0,0,0,5.14,5.14H304.6a5.14,5.14,0,0,0,5.14-5.14V76.54a5.14,5.14,0,0,0-5.14-5.14Z"/><path class="cls-5" d="M212.05,215.16h-15a2.59,2.59,0,0,1-2.59-2.59h0a2.59,2.59,0,0,1,2.59-2.59h15a2.59,2.59,0,0,1,2.59,2.59h0A2.59,2.59,0,0,1,212.05,215.16Z"/><path class="cls-5" d="M212.52,74.66H202.9a.93.93,0,0,1-.92-.93h0a.92.92,0,0,1,.92-.92h9.62a.93.93,0,0,1,.93.92h0A.93.93,0,0,1,212.52,74.66Z"/><path class="cls-5" d="M216.56,73.74a.93.93,0,1,1-.93-.93A.93.93,0,0,1,216.56,73.74Z"/><rect class="cls-3" x="140.64" y="40.19" width="128.9" height="202.42" rx="2.16" transform="translate(63.69 346.49) rotate(-90)"/><path class="cls-8" d="M247.72,96.62H117.35a4.12,4.12,0,0,1-4.12-4.12h0a4.11,4.11,0,0,1,4.12-4.12H247.72a4.11,4.11,0,0,1,4.12,4.12h0A4.12,4.12,0,0,1,247.72,96.62Z"/><rect class="cls-8" x="113.23" y="103" width="32.63" height="3.53"/><rect class="cls-8" x="160.61" y="103" width="32.63" height="3.53"/><rect class="cls-8" x="255.38" y="103" width="32.63" height="3.53"/><rect class="cls-8" x="207.99" y="103" width="32.63" height="3.53"/><path class="cls-3" d="M249.29,92.5A2.32,2.32,0,1,1,247,90.18,2.31,2.31,0,0,1,249.29,92.5Z"/><rect class="cls-9" x="113.23" y="112.94" width="28.84" height="37.96" rx="2.94"/><path class="cls-10" d="M113.23,133.83V148a2.94,2.94,0,0,0,2.94,2.94h23a2.93,2.93,0,0,0,2.94-2.94V133.83Z"/><rect class="cls-3" x="116.91" y="136.77" width="12.51" height="1.77"/><rect class="cls-3" x="116.91" y="140.74" width="21.77" height="1.77"/><rect class="cls-3" x="116.91" y="144.71" width="21.77" height="1.77"/><rect class="cls-9" x="153.78" y="112.91" width="28.84" height="37.96" rx="2.94"/><path class="cls-10" d="M153.78,133.81v14.12a2.93,2.93,0,0,0,2.94,2.94h22.95a2.94,2.94,0,0,0,2.94-2.94V133.81Z"/><rect class="cls-3" x="157.45" y="136.75" width="12.51" height="1.77"/><rect class="cls-3" x="157.45" y="140.72" width="21.77" height="1.77"/><rect class="cls-3" x="157.45" y="144.69" width="21.77" height="1.77"/><rect class="cls-9" x="194.32" y="112.91" width="28.84" height="37.96" rx="2.94"/><path class="cls-10" d="M194.32,133.81v14.12a2.94,2.94,0,0,0,2.94,2.94h23a2.94,2.94,0,0,0,2.94-2.94V133.81Z"/><rect class="cls-3" x="198" y="136.75" width="12.51" height="1.77"/><rect class="cls-3" x="198" y="140.72" width="21.77" height="1.77"/><rect class="cls-3" x="198" y="144.69" width="21.77" height="1.77"/><rect class="cls-9" x="234.87" y="113.8" width="54.09" height="71.2" rx="5.52"/><rect class="cls-8" x="241.77" y="158.39" width="23.46" height="3.53"/><rect class="cls-8" x="241.77" y="165.84" width="40.84" height="3.53"/><rect class="cls-8" x="241.77" y="173.29" width="40.84" height="3.53"/><rect class="cls-3" x="237.59" y="115.7" width="48.55" height="38.59" rx="4.3"/><rect class="cls-8" x="243.01" y="122.36" width="18.85" height="3.53"/><rect class="cls-10" x="113.44" y="158.02" width="23.36" height="3.53"/><rect class="cls-8" x="113.44" y="165.76" width="109.51" height="3.53"/><rect class="cls-8" x="113.44" y="173.5" width="109.51" height="3.53"/><rect class="cls-10" x="113.59" y="183.54" width="23.37" height="3.53"/><rect class="cls-8" x="113.59" y="191.28" width="109.51" height="3.53"/><rect class="cls-8" x="113.59" y="199.02" width="109.51" height="3.53"/><g class="cls-6"><path d="M245.89,255.65H157.56a6.92,6.92,0,0,1-6.93-6.92h0a6.93,6.93,0,0,1,6.93-6.93h88.33a6.92,6.92,0,0,1,6.92,6.93h0A6.92,6.92,0,0,1,245.89,255.65Z"/></g><g class="cls-6"><path d="M261.4,291.74h-57a7.81,7.81,0,0,1-7.81-7.81h0a7.81,7.81,0,0,1,7.81-7.82h57a7.82,7.82,0,0,1,7.81,7.82h0A7.81,7.81,0,0,1,261.4,291.74Z"/></g><g class="cls-6"><path d="M87.14,291.74H62.67a7.82,7.82,0,0,1-7.82-7.81h0a7.82,7.82,0,0,1,7.82-7.82H87.14A7.81,7.81,0,0,1,95,283.93h0A7.81,7.81,0,0,1,87.14,291.74Z"/></g><path class="cls-2" d="M232.91,284.21h0a29.65,29.65,0,0,1-29.66-29.65V227.33a29.66,29.66,0,0,1,29.66-29.66h0a29.66,29.66,0,0,1,29.65,29.66v27.23A29.65,29.65,0,0,1,232.91,284.21Z"/><rect class="cls-5" x="231.29" y="228.5" width="3.23" height="55.72"/><rect class="cls-5" x="225" y="235.73" width="3.23" height="21.43" transform="translate(-101.53 180.02) rotate(-35.96)"/><rect class="cls-5" x="228.97" y="261.62" width="20.6" height="3.23" transform="translate(-114.28 302.48) rotate(-54.06)"/><path class="cls-2" d="M168.91,256.09a35.93,35.93,0,0,0-8.2,11.48,36.75,36.75,0,0,0-4.14-15.21,36,36,0,0,0-3.43,15.09A35.79,35.79,0,0,0,145,256.09a37.54,37.54,0,0,0,11.93,31.4c0-.61,0-1.21,0-1.81v0c0,.58,0,1.18,0,1.77A37.57,37.57,0,0,0,168.91,256.09Z"/><g class="cls-1"><path class="cls-2" d="M411.88,220.91a5.31,5.31,0,1,1-5.31-5.31A5.31,5.31,0,0,1,411.88,220.91Z"/><path class="cls-2" d="M52.48,90.18a5.31,5.31,0,1,1-5.31-5.31A5.31,5.31,0,0,1,52.48,90.18Z"/><path class="cls-2" d="M118.9,37.06a5.31,5.31,0,1,1-5.31-5.31A5.31,5.31,0,0,1,118.9,37.06Z"/><circle class="cls-2" cx="39.9" cy="157.58" r="1.96"/><path class="cls-2" d="M276.94,2a2,2,0,1,1-2-2A2,2,0,0,1,276.94,2Z"/><path class="cls-2" d="M397.85,154.29a2.66,2.66,0,1,1-2.65-2.66A2.65,2.65,0,0,1,397.85,154.29Z"/></g><path class="cls-5" d="M310.57,170.65l-13.64-.49c-2-.34-5.59-2.41-4.74-9.2l25.86.47v4A6.47,6.47,0,0,1,310.57,170.65Z"/><path class="cls-5" d="M290.53,183.44l-3.23.75a4,4,0,0,1-4.78-3l-17.74-76.65,3.74-.87Z"/><path class="cls-2" d="M290.53,183.44h0a3.6,3.6,0,0,1-4.32-2.69l-17.83-77,7-1.62,17.82,77A3.6,3.6,0,0,1,290.53,183.44Z"/><g class="cls-1"><path class="cls-2" d="M288.7,63.66c4.4,19-3.84,37.15-18.41,40.52s-30-9.3-34.34-28.31,3.84-37.14,18.41-40.52S284.3,44.66,288.7,63.66Z"/></g><g class="cls-11"><path class="cls-3" d="M254.36,35.35A21.46,21.46,0,0,0,249.75,37c13,.07,25.57,12,29.48,28.85S277.05,99,265.42,104.71a21.24,21.24,0,0,0,4.87-.53c14.57-3.37,22.81-21.51,18.41-40.52S268.93,32,254.36,35.35Z"/></g><path class="cls-2" d="M255.39,39.82c5.63-1.3,11.68.42,17,4.84,5.71,4.7,9.9,11.82,11.81,20s1.26,16.45-1.81,23.19c-2.87,6.32-7.55,10.52-13.18,11.82s-11.67-.41-17-4.83c-5.71-4.71-9.91-11.83-11.81-20s-1.26-16.45,1.8-23.19c2.88-6.33,7.56-10.53,13.18-11.83m-1-4.47C239.79,38.73,231.55,56.87,236,75.87s19.77,31.68,34.34,28.31S293.1,82.67,288.7,63.66,268.93,32,254.36,35.35Z"/><g class="cls-11"><path class="cls-3" d="M252.67,44.19a22,22,0,0,0-9.48,18.28c1.82-.43,4.21-.48,6-.92C247.23,56.3,249,48.47,252.67,44.19Z"/></g><path class="cls-5" d="M236,75.87c-4.17-18,3-35.2,16.14-39.84a20.59,20.59,0,0,0-2.33.39C235.19,39.79,227,57.93,231.34,76.94s19.78,31.68,34.35,28.31a19.6,19.6,0,0,0,2.26-.68C254.11,106.17,240.11,93.87,236,75.87Z"/></g></g></svg>